<svg width="982" height="684" viewBox="0 0 982 684" fill="none" xmlns="http://www.w3.org/2000/svg">
<g opacity="0.8">
<path d="M263.069 1087.15C245.467 1057.4 231.117 1032.98 220.019 1013.89C208.671 994.382 199.245 978.485 191.74 966.195C184.395 953.245 177.97 942.264 172.467 933.252C166.713 923.83 160.959 914.408 155.206 904.985C149.202 895.154 142.072 883.478 133.817 869.96C125.562 856.441 118.557 844.971 112.803 835.548C106.8 825.717 101.046 816.295 95.5423 807.282C89.7886 797.86 82.9545 787.129 75.04 775.09C67.285 762.39 57.449 746.743 45.5319 728.149C33.6149 709.555 18.4457 685.636 0.0244713 656.39L312.184 465.768L403.775 619.901C381.404 633 363.868 643.427 351.169 651.182C338.219 658.527 327.648 664.701 319.455 669.704C311.011 674.298 302.693 679.096 294.5 684.1C286.307 689.103 275.656 695.607 262.547 703.612C241.654 716.37 224.164 727.332 210.076 736.497C196.398 745.413 185.428 753.236 177.166 759.969C168.654 766.292 162.235 771.899 157.91 776.789C153.995 781.43 151.434 785.525 150.227 789.074C149.748 791.053 149.395 793.238 149.166 795.627C149.348 797.766 149.654 800.11 150.086 802.658C150.927 804.957 152.098 807.335 153.599 809.793C154.85 811.841 156.305 813.764 157.966 815.562C160.036 817.11 161.981 818.454 163.801 819.592C166.03 820.48 168.135 821.163 170.114 821.642C175.552 822.258 182.789 821.214 191.823 818.509C201.017 815.144 213.852 808.994 230.329 800.057C247.216 790.869 269.587 777.77 297.444 760.759C305.228 756.006 311.782 752.004 317.108 748.752C322.843 745.249 329.397 741.247 336.771 736.744C343.895 731.831 354.011 725.373 367.12 717.367C380.389 708.702 398.573 697.036 421.674 682.367L449.817 728.453C426.216 742.303 407.656 753.355 394.138 761.61C380.779 769.206 370.412 775.255 363.038 779.758C355.414 783.851 348.735 787.649 342.999 791.151C337.674 794.403 331.119 798.406 323.336 803.159C295.479 820.17 274.017 833.838 258.951 844.164C244.294 854.239 234.029 862.757 228.156 869.718C222.283 876.679 218.674 883.663 217.329 890.671C216.463 895.699 217.167 901.456 219.44 907.942C221.873 913.768 226.341 922.006 232.845 932.657C242.852 949.044 255.099 967.718 269.586 988.679C283.823 1009.23 299.266 1031.3 315.915 1054.87L263.069 1087.15ZM987.971 644.478C964.365 604.901 945.057 572.822 930.048 548.243C915.198 523.003 903.395 503.215 894.639 488.877C886.293 474.289 879.869 463.308 875.366 455.934C870.863 448.56 867.486 443.029 865.234 439.343C862.983 435.656 860.731 431.969 858.48 428.282C856.228 424.595 853.977 420.908 851.726 417.221C849.474 413.534 846.097 408.004 841.594 400.63C837.091 393.256 830.257 382.525 821.092 368.437C812.336 354.099 800.249 334.766 784.829 310.436C769.569 285.447 749.727 253.414 725.302 214.337L940.372 83.0026C981.338 57.9866 1021.08 50.3087 1059.6 59.9692C1098.28 68.9699 1131.5 96.2062 1159.27 141.678C1179.28 174.451 1189.32 205.161 1189.38 233.808C1189.19 262.046 1178.86 288.881 1158.39 314.314C1138.34 339.496 1108.03 364.47 1067.48 389.236C1036.75 407.998 1014.11 422.952 999.543 434.096C985.136 444.581 975.735 453.134 971.342 459.754C966.948 466.374 964.409 473.268 963.724 480.435C963.358 486.283 964.607 493.394 967.471 501.768C970.085 509.733 975.395 520.27 983.4 533.379C986.402 538.295 989.654 543.62 993.156 549.356C997.068 554.841 1001.15 561.065 1005.4 568.03C1009.82 574.334 1014.73 581.458 1020.14 589.401C1025.71 596.684 1031.79 604.786 1038.36 613.708L987.971 644.478ZM1032.54 358.268C1058.76 342.257 1079.02 328.475 1093.34 316.921C1107.82 304.706 1118.07 294.789 1124.1 287.168C1130.29 278.888 1133.15 270.674 1132.68 262.528C1132.61 254.132 1130.33 246.247 1125.82 238.873C1121.32 231.499 1115.35 225.866 1107.91 221.972C1100.88 217.829 1092.27 216.62 1082.07 218.346C1072.29 219.822 1058.78 224.413 1041.56 232.121C1024.74 239.579 1003.22 251.313 977.003 267.324C965.532 274.328 955.131 281.242 945.8 288.065C936.218 294.479 927.911 300.676 920.878 306.658C914.004 311.981 907.87 317.132 902.476 322.114C897.491 326.845 893.656 331.156 890.969 335.046C886.895 340.346 884.344 345.841 883.319 351.529C882.293 357.217 882.336 362.814 883.45 368.321C884.722 373.168 886.86 378.05 889.861 382.966C892.863 387.882 896.355 392.218 900.335 395.973C904.476 399.069 909.31 401.46 914.839 403.146C920.117 404.422 926.17 404.662 932.996 403.868C939.573 402.665 947.458 400.38 956.652 397.016C966.255 393.401 977.372 388.581 990.003 382.555C1002.79 375.87 1016.97 367.774 1032.54 358.268Z" fill="#E86025"/>
<path d="M625.52 865.812C607.918 836.066 593.568 811.646 582.47 792.552C571.122 773.048 561.696 757.151 554.191 744.861C546.846 731.911 540.421 720.93 534.918 711.918C529.164 702.496 523.41 693.074 517.657 683.652C511.653 673.82 504.523 662.145 496.268 648.626C488.013 635.107 481.008 623.637 475.255 614.215C469.251 604.383 463.497 594.961 457.993 585.948C452.24 576.526 445.406 565.795 437.491 553.756C429.736 541.056 419.9 525.41 407.983 506.815C396.066 488.221 380.897 464.302 362.476 435.057L674.635 244.434L766.226 398.567C743.855 411.666 726.319 422.093 713.62 429.848C700.67 437.193 690.099 443.367 681.906 448.371C673.462 452.964 665.144 457.763 656.951 462.766C648.758 467.769 638.107 474.273 624.998 482.278C604.105 495.037 586.615 505.998 572.527 515.164C558.849 524.079 547.879 531.903 539.617 538.635C531.105 544.958 524.686 550.565 520.361 555.455C516.446 560.096 513.885 564.191 512.678 567.74C512.199 569.72 511.846 571.904 511.617 574.293C511.799 576.432 512.105 578.776 512.537 581.324C513.378 583.623 514.549 586.001 516.05 588.459C517.301 590.507 518.756 592.43 520.417 594.229C522.487 595.777 524.432 597.12 526.252 598.258C528.482 599.146 530.586 599.829 532.565 600.308C538.004 600.924 545.24 599.88 554.274 597.175C563.468 593.81 576.303 587.66 592.78 578.723C609.667 569.536 632.039 556.437 659.895 539.426C667.679 534.673 674.233 530.67 679.559 527.418C685.294 523.916 691.849 519.913 699.222 515.41C706.346 510.498 716.462 504.039 729.571 496.034C742.84 487.369 761.024 475.702 784.125 461.033L812.268 507.119C788.667 520.969 770.108 532.021 756.589 540.277C743.23 547.872 732.863 553.921 725.489 558.424C717.865 562.517 711.186 566.315 705.45 569.817C700.125 573.07 693.57 577.072 685.787 581.825C657.93 598.836 636.468 612.504 621.402 622.83C606.745 632.905 596.48 641.423 590.607 648.384C584.734 655.345 581.125 662.329 579.78 669.337C578.914 674.365 579.618 680.122 581.891 686.608C584.324 692.434 588.792 700.672 595.296 711.324C605.303 727.71 617.55 746.384 632.037 767.345C646.275 787.897 661.717 809.962 678.366 833.541L625.52 865.812Z" fill="#FFA929"/>
</g>
</svg>
