<svg width="244" height="28" viewBox="0 0 244 28" fill="none" xmlns="http://www.w3.org/2000/svg">
<rect width="28" height="28" fill="#FFA929"/>
<path d="M13.346 19V11.74L11.72 12.73V11.332L13.346 10.36H14.624V19H13.346Z" fill="#FAFAFA"/>
<rect width="28" height="28" transform="translate(36)" fill="#F5F5F5"/>
<path d="M46.6 18.994L46.606 18.034L50.44 14.584C50.76 14.296 50.974 14.024 51.082 13.768C51.194 13.508 51.25 13.242 51.25 12.97C51.25 12.638 51.174 12.338 51.022 12.07C50.87 11.802 50.662 11.59 50.398 11.434C50.138 11.278 49.842 11.2 49.51 11.2C49.166 11.2 48.86 11.282 48.592 11.446C48.324 11.606 48.112 11.82 47.956 12.088C47.804 12.356 47.73 12.648 47.734 12.964H46.642C46.642 12.42 46.768 11.94 47.02 11.524C47.272 11.104 47.614 10.776 48.046 10.54C48.482 10.3 48.976 10.18 49.528 10.18C50.064 10.18 50.544 10.304 50.968 10.552C51.392 10.796 51.726 11.13 51.97 11.554C52.218 11.974 52.342 12.45 52.342 12.982C52.342 13.358 52.294 13.684 52.198 13.96C52.106 14.236 51.962 14.492 51.766 14.728C51.57 14.96 51.324 15.208 51.028 15.472L47.842 18.334L47.704 17.974H52.342V18.994H46.6Z" fill="#404040"/>
<rect width="28" height="28" transform="translate(72)" fill="#F5F5F5"/>
<path d="M86.21 19.168C85.782 19.168 85.384 19.09 85.016 18.934C84.648 18.774 84.33 18.55 84.062 18.262C83.798 17.97 83.604 17.624 83.48 17.224L84.506 16.93C84.638 17.33 84.858 17.634 85.166 17.842C85.474 18.05 85.82 18.152 86.204 18.148C86.556 18.14 86.86 18.06 87.116 17.908C87.376 17.752 87.576 17.54 87.716 17.272C87.86 17.004 87.932 16.694 87.932 16.342C87.932 15.806 87.772 15.372 87.452 15.04C87.132 14.704 86.712 14.536 86.192 14.536C86.048 14.536 85.896 14.556 85.736 14.596C85.58 14.636 85.434 14.692 85.298 14.764L84.782 13.918L87.986 11.02L88.124 11.38H83.822V10.36H88.916V11.386L86.186 14.002L86.174 13.624C86.746 13.584 87.246 13.678 87.674 13.906C88.102 14.134 88.434 14.46 88.67 14.884C88.91 15.308 89.03 15.794 89.03 16.342C89.03 16.894 88.906 17.382 88.658 17.806C88.41 18.23 88.074 18.564 87.65 18.808C87.226 19.048 86.746 19.168 86.21 19.168Z" fill="#404040"/>
<rect width="28" height="28" transform="translate(108)" fill="#F5F5F5"/>
<path d="M118.032 19V17.824H119.208V19H118.032ZM121.266 19V17.824H122.442V19H121.266ZM124.501 19V17.824H125.677V19H124.501Z" fill="#404040"/>
<rect width="28" height="28" transform="translate(144)" fill="#F5F5F5"/>
<path d="M151.6 18.994L151.606 18.034L155.44 14.584C155.76 14.296 155.974 14.024 156.082 13.768C156.194 13.508 156.25 13.242 156.25 12.97C156.25 12.638 156.174 12.338 156.022 12.07C155.87 11.802 155.662 11.59 155.398 11.434C155.138 11.278 154.842 11.2 154.51 11.2C154.166 11.2 153.86 11.282 153.592 11.446C153.324 11.606 153.112 11.82 152.956 12.088C152.804 12.356 152.73 12.648 152.734 12.964H151.642C151.642 12.42 151.768 11.94 152.02 11.524C152.272 11.104 152.614 10.776 153.046 10.54C153.482 10.3 153.976 10.18 154.528 10.18C155.064 10.18 155.544 10.304 155.968 10.552C156.392 10.796 156.726 11.13 156.97 11.554C157.218 11.974 157.342 12.45 157.342 12.982C157.342 13.358 157.294 13.684 157.198 13.96C157.106 14.236 156.962 14.492 156.766 14.728C156.57 14.96 156.324 15.208 156.028 15.472L152.842 18.334L152.704 17.974H157.342V18.994H151.6ZM161.478 19.18C160.926 19.18 160.438 19.07 160.014 18.85C159.59 18.626 159.258 18.316 159.018 17.92C158.778 17.524 158.658 17.062 158.658 16.534C158.658 16.018 158.78 15.552 159.024 15.136C159.272 14.72 159.644 14.4 160.14 14.176L160.122 14.566C159.718 14.37 159.408 14.094 159.192 13.738C158.976 13.378 158.868 12.98 158.868 12.544C158.868 12.056 158.98 11.636 159.204 11.284C159.428 10.932 159.736 10.66 160.128 10.468C160.52 10.276 160.97 10.18 161.478 10.18C161.986 10.18 162.436 10.276 162.828 10.468C163.22 10.66 163.528 10.932 163.752 11.284C163.976 11.636 164.088 12.056 164.088 12.544C164.088 12.98 163.986 13.376 163.782 13.732C163.578 14.084 163.264 14.362 162.84 14.566L162.816 14.182C163.312 14.398 163.684 14.716 163.932 15.136C164.184 15.552 164.31 16.018 164.31 16.534C164.31 17.062 164.188 17.524 163.944 17.92C163.704 18.316 163.37 18.626 162.942 18.85C162.518 19.07 162.03 19.18 161.478 19.18ZM161.478 18.16C161.982 18.16 162.39 18.022 162.702 17.746C163.018 17.466 163.176 17.062 163.176 16.534C163.176 16.002 163.02 15.598 162.708 15.322C162.4 15.042 161.99 14.902 161.478 14.902C160.97 14.902 160.56 15.042 160.248 15.322C159.94 15.598 159.786 16.002 159.786 16.534C159.786 17.062 159.942 17.466 160.254 17.746C160.566 18.022 160.974 18.16 161.478 18.16ZM161.478 13.876C161.918 13.876 162.274 13.766 162.546 13.546C162.818 13.322 162.954 12.988 162.954 12.544C162.954 12.1 162.818 11.768 162.546 11.548C162.274 11.324 161.918 11.212 161.478 11.212C161.042 11.212 160.686 11.324 160.41 11.548C160.138 11.768 160.002 12.1 160.002 12.544C160.002 12.988 160.138 13.322 160.41 13.546C160.686 13.766 161.042 13.876 161.478 13.876Z" fill="#404040"/>
<rect width="28" height="28" transform="translate(180)" fill="#F5F5F5"/>
<path d="M196 10C196 10 192 12.946 192 14C192 15.0541 196 18 196 18" stroke="#404040" stroke-linecap="round" stroke-linejoin="round"/>
<rect width="28" height="28" transform="translate(216)" fill="#F5F5F5"/>
<path d="M228 10C228 10 232 12.946 232 14C232 15.0541 228 18 228 18" stroke="#404040" stroke-linecap="round" stroke-linejoin="round"/>
</svg>
